<svg width="42" height="42" viewBox="0 0 42 42" fill="none" xmlns="http://www.w3.org/2000/svg">
<g id="Frame">
<g id="SVGRepo_iconCarrier">
<path id="Vector" fill-rule="evenodd" clip-rule="evenodd" d="M38.5 21C38.5 30.6649 30.6649 38.5 21 38.5C11.335 38.5 3.5 30.6649 3.5 21C3.5 11.335 11.335 3.5 21 3.5C30.6649 3.5 38.5 11.335 38.5 21ZM26.25 15.75C26.25 18.6496 23.8996 21 21 21C18.1004 21 15.75 18.6496 15.75 15.75C15.75 12.8505 18.1004 10.5 21 10.5C23.8996 10.5 26.25 12.8505 26.25 15.75ZM21 35.875C24.122 35.875 27.0195 34.9132 29.4121 33.2696C30.4689 32.5437 30.9204 31.1609 30.3062 30.0356C29.0325 27.703 26.4079 26.25 20.9998 26.25C15.592 26.25 12.9674 27.7029 11.6937 30.0356C11.0793 31.1609 11.5309 32.5435 12.5877 33.2694C14.9803 34.913 17.8778 35.875 21 35.875Z" fill="#1965A7"/>
</g>
</g>
</svg>
