<svg width="23" height="23" viewBox="0 0 23 23" fill="none" xmlns="http://www.w3.org/2000/svg">
<path d="M20.3071 7.7048L17.2596 4.65731C16.1096 3.50731 14.5283 3.56483 13.7521 4.80108L12.0558 7.48441L17.4896 12.9181L20.1729 11.2219C21.3325 10.484 21.3996 8.78772 20.3071 7.7048Z" stroke="white" stroke-width="1.4375" stroke-linecap="round" stroke-linejoin="round"/>
<path d="M17.4896 12.9089L17.7196 16.8572C17.94 19.0614 17.1734 19.828 15.0842 20.0772L6.72754 21.0643C4.96421 21.2655 3.69921 20.0005 3.91004 18.2468L4.84921 10.3118" stroke="white" stroke-width="1.4375" stroke-linecap="round" stroke-linejoin="round"/>
<path d="M12.0559 7.48456L10.3788 7.37915" stroke="white" stroke-width="1.4375" stroke-linecap="round" stroke-linejoin="round"/>
<path d="M5.06006 19.9141L8.10757 16.8569" stroke="white" stroke-width="1.4375" stroke-linecap="round" stroke-linejoin="round"/>
<path d="M10.5417 6.22925C10.5417 6.62216 10.4842 7.01509 10.3788 7.37926C10.2734 7.76259 10.12 8.11717 9.91877 8.45259C9.68877 8.83592 9.40128 9.18091 9.06586 9.46841C8.30878 10.1392 7.32169 10.5417 6.22919 10.5417C5.74044 10.5417 5.28044 10.4651 4.84919 10.3117C3.87169 9.98591 3.05709 9.31509 2.53959 8.45259C2.14668 7.80092 1.91669 7.03425 1.91669 6.22925C1.91669 4.86841 2.5396 3.65132 3.53627 2.86549C4.27419 2.27132 5.21335 1.91675 6.22919 1.91675C8.61544 1.91675 10.5417 3.843 10.5417 6.22925Z" stroke="white" stroke-width="1.4375" stroke-miterlimit="10" stroke-linecap="round" stroke-linejoin="round"/>
<path d="M6.24835 7.83912V4.61914" stroke="white" stroke-width="1.4375" stroke-miterlimit="10" stroke-linecap="round" stroke-linejoin="round"/>
<path d="M7.82004 6.22925H4.60004" stroke="white" stroke-width="1.4375" stroke-miterlimit="10" stroke-linecap="round" stroke-linejoin="round"/>
</svg>
