<svg width="27" height="27" viewBox="0 0 27 27" fill="none" xmlns="http://www.w3.org/2000/svg">
<g id="Frame">
<g id="SVGRepo_iconCarrier">
<path id="Vector" opacity="0.5" d="M10.1835 5.0625C10.125 5.71233 10.125 6.52899 10.125 7.56206V19.4379C10.125 20.4709 10.125 21.2877 10.1835 21.9375H9C6.34835 21.9375 5.02253 21.9375 4.19876 21.1138C3.375 20.2899 3.375 18.9641 3.375 16.3125V10.6875C3.375 8.03585 3.375 6.71003 4.19876 5.88626C5.02253 5.0625 6.34835 5.0625 9 5.0625H10.1835Z" fill="#1965A7"/>
<path id="Vector_2" fill-rule="evenodd" clip-rule="evenodd" d="M10.9207 2.70954C10.125 3.4149 10.125 4.70516 10.125 7.2857V19.7138C10.125 22.2943 10.125 23.5846 10.9207 24.29C11.7163 24.9953 12.9324 24.7832 15.3648 24.3589L17.9847 23.9021C20.6785 23.4322 22.0254 23.1973 22.8252 22.2092C23.625 21.2212 23.625 19.7922 23.625 16.9343V10.0653C23.625 7.2073 23.625 5.77834 22.8252 4.79029C22.0254 3.80224 20.6785 3.56733 17.9847 3.09748L15.3648 2.64053C12.9324 2.21629 11.7163 2.00417 10.9207 2.70954ZM14.3438 12.3224C14.3438 11.8348 13.966 11.4394 13.5 11.4394C13.034 11.4394 12.6562 11.8348 12.6562 12.3224V14.6771C12.6562 15.1648 13.034 15.5601 13.5 15.5601C13.966 15.5601 14.3438 15.1648 14.3438 14.6771V12.3224Z" fill="#1965A7"/>
</g>
</g>
</svg>
